<?xml version="1.0" encoding="utf-8"?>
<svg xmlns="http://www.w3.org/2000/svg" viewBox="0 0 1146.1 912.5">
<style></style>
<style>
text{
	font-family:'ZCOOLKuaiLe',sans-serif;
	fill:#111;
	font-size:30px;
}
#标题,#分数{font-size:60px;}
.st11{font-size:18px;}
.st12{font-size:24px;}
.st13{font-size:21px;}
.st14{font-size:12px;}
#地区 path{
	fill-rule:evenodd;
	clip-rule:evenodd;
	fill:#FFF;
	stroke:#000;
	stroke-width:4;
	stroke-linecap:round;
	stroke-linejoin:round;
	cursor:pointer;
	pointer-events:auto;
}
#地区 path[level="5"]{fill:#FF7E7E;}
#地区 path[level="4"]{fill:#FFB57E;}
#地区 path[level="3"]{fill:#FFE57E;}
#地区 path[level="2"]{fill:#A8FFBE;}
#地区 path[level="1"]{fill:#88AEFF;}
#地名,#地名 *{pointer-events:none;fill:#111;}
#等级{pointer-events:none;}
#等级 text{font-size:24px;}
.level-border{
	fill:none;
	stroke:#000;
	stroke-width:4;
	stroke-linecap:round;
	stroke-linejoin:round;
}
</style>
<text id="标题" x="40" y="92">US Level</text>
<text id="分数" x="1106" y="92" text-anchor="end">Score</text>
<g id="地区">
  <path id="Maryland" d="M896.8,330.5h88c1.7,0,3,1.3,3,3v28c0,1.7-1.3,3-3,3h-88c-1.7,0-3-1.3-3-3v-28 C893.8,331.8,895.1,330.5,896.8,330.5z"/>
  <path id="Ohio" d="M788.8,295.5h76c1.7,0,3,1.3,3,3v89c0,1.7-1.3,3-3,3h-76c-1.7,0-3-1.3-3-3v-89 C785.8,296.8,787.1,295.5,788.8,295.5z"/>
  <path id="California" d="M224.8,281.5v278.1 c0,2.5-2.8,3.9-4.8,2.4L81.8,461.4c-0.8-0.6-1.2-1.5-1.2-2.4V281.5c0-1.7,1.3-3,3-3h138.2C223.5,278.5,224.8,279.8,224.8,281.5z"/>
  <path id="Utah" d="M227.8,278.5h73c1.7,0,3,1.3,3,3v144c0,1.7-1.3,3-3,3h-73c-1.7,0-3-1.3-3-3v-144 C224.8,279.8,226.1,278.5,227.8,278.5z"/>
  <path id="Idaho" d="M194.8,125.5h87c1.7,0,3,1.3,3,3v147c0,1.7-1.3,3-3,3h-87c-1.7,0-3-1.3-3-3v-147 C191.8,126.8,193.1,125.5,194.8,125.5z"/>
  <path id="South_Dakota" d="M418.8,204.5h142c1.7,0,3,1.3,3,3v68c0,1.7-1.3,3-3,3h-142c-1.7,0-3-1.3-3-3v-68 C415.8,205.8,417.1,204.5,418.8,204.5z"/>
  <path id="Nebraska" d="M418.8,278.5h156c1.7,0,3,1.3,3,3v69c0,1.7-1.3,3-3,3h-156c-1.7,0-3-1.3-3-3v-69 C415.8,279.8,417.1,278.5,418.8,278.5z"/>
  <path id="Oklahoma" d="M425.8,428.5h173c1.7,0,3,1.3,3,3v75c0,1.7-1.3,3-3,3h-173c-1.7,0-3-1.3-3-3v-75 C422.8,429.8,424.1,428.5,425.8,428.5z"/>
  <path id="Missouri" d="M580.8,341.5h124c1.7,0,3,1.3,3,3v100c0,1.7-1.3,3-3,3h-124c-1.7,0-3-1.3-3-3v-100 C577.8,342.8,579.1,341.5,580.8,341.5z"/>
  <path id="Illinois" d="M674.8,275.5h54c1.7,0,3,1.3,3,3v129c0,1.7-1.3,3-3,3h-54c-1.7,0-3-1.3-3-3v-129 C671.8,276.8,673.1,275.5,674.8,275.5z"/>
  <path id="Maine" d="M1047.3,115.5h37.5c1.7,0,3,1.3,3,3v87c0,1.7-1.3,3-3,3h-37.5c-1.7,0-3-1.3-3-3v-87 C1044.3,116.8,1045.6,115.5,1047.3,115.5z"/>
  <path id="New_Hampshire" d="M1021.8,158.5h19c1.7,0,3,1.3,3,3v64c0,1.7-1.3,3-3,3h-19c-1.7,0-3-1.3-3-3v-64 C1018.8,159.8,1020.1,158.5,1021.8,158.5z"/>
  <path id="Vermont" d="M996.8,158.5h19c1.7,0,3,1.3,3,3v64c0,1.7-1.3,3-3,3h-19c-1.7,0-3-1.3-3-3v-64 C993.8,159.8,995.1,158.5,996.8,158.5z"/>
  <path id="Massachusettes" d="M996.8,228.5h62c1.7,0,3,1.3,3,3v41c0,1.7-1.3,3-3,3h-62c-1.7,0-3-1.3-3-3v-41 C993.8,229.8,995.1,228.5,996.8,228.5z"/>
  <path id="Connecticut" d="M996.8,255.5h26c1.7,0,3,1.3,3,3v14c0,1.7-1.3,3-3,3h-26c-1.7,0-3-1.3-3-3v-14 C993.8,256.8,995.1,255.5,996.8,255.5z"/>
  <path id="New_York" d="M908.8,158.5h82c1.7,0,3,1.3,3,3v122c0,1.7-1.3,3-3,3h-82c-1.7,0-3-1.3-3-3v-122 C905.8,159.8,907.1,158.5,908.8,158.5z"/>
  <path id="Rhode_Island" d="M1028.8,255.5h12c1.7,0,3,1.3,3,3v14c0,1.7-1.3,3-3,3h-12c-1.7,0-3-1.3-3-3v-14 C1025.8,256.8,1027.1,255.5,1028.8,255.5z"/>
  <path id="Pennsylvania" d="M870.8,275.5h90c1.7,0,3,1.3,3,3v49c0,1.7-1.3,3-3,3h-90c-1.7,0-3-1.3-3-3v-49 C867.8,276.8,869.1,275.5,870.8,275.5z"/>
  <path id="New_Jersy" d="M966.8,286.5h24c1.7,0,3,1.3,3,3v30c0,1.7-1.3,3-3,3h-24c-1.7,0-3-1.3-3-3v-30 C963.8,287.8,965.1,286.5,966.8,286.5z"/>
  <path id="Delaware" d="M966.8,322.5h18c1.7,0,3,1.3,3,3v18c0,1.7-1.3,3-3,3h-18c-1.7,0-3-1.3-3-3v-18 C963.8,323.8,965.1,322.5,966.8,322.5z"/>
  <path id="Virginia" d="M852.8,364.5h132c1.7,0,3,1.3,3,3v55c0,1.7-1.3,3-3,3h-132c-1.7,0-3-1.3-3-3v-55 C849.8,365.8,851.1,364.5,852.8,364.5z"/>
  <path id="DC" d="M947.8,354.5h20c1.7,0,3,1.3,3,3v12c0,1.7-1.3,3-3,3h-20c-1.7,0-3-1.3-3-3v-12 C944.8,355.8,946.1,354.5,947.8,354.5z"/>
  <path id="West_Virginia" d="M852.8,330.5h38c1.7,0,3,1.3,3,3v62c0,1.7-1.3,3-3,3h-38c-1.7,0-3-1.3-3-3v-62 C849.8,331.8,851.1,330.5,852.8,330.5z"/>
  <path id="Kentucky" d="M710.8,389.5h136c1.7,0,3,1.3,3,3v30c0,1.7-1.3,3-3,3h-136c-1.7,0-3-1.3-3-3v-30 C707.8,390.8,709.1,389.5,710.8,389.5z"/>
  <path id="North_Carolina" d="M863.8,425.5h102c1.7,0,3,1.3,3,3v33c0,1.7-1.3,3-3,3h-102c-1.7,0-3-1.3-3-3v-33 C860.8,426.8,862.1,425.5,863.8,425.5z"/>
  <path id="Tennessee" d="M710.8,425.5h147c1.7,0,3,1.3,3,3v33c0,1.7-1.3,3-3,3h-147c-1.7,0-3-1.3-3-3v-33 C707.8,426.8,709.1,425.5,710.8,425.5z"/>
  <path id="South_Carolina" d="M899.8,464.5h51c1.7,0,3,1.3,3,3v58c0,1.7-1.3,3-3,3h-51c-1.7,0-3-1.3-3-3v-58 C896.8,465.8,898.1,464.5,899.8,464.5z"/>
  <path id="Georgia" d="M817.8,464.5h76c1.7,0,3,1.3,3,3v99c0,1.7-1.3,3-3,3h-76c-1.7,0-3-1.3-3-3v-99 C814.8,465.8,816.1,464.5,817.8,464.5z"/>
  <path id="Alabama" d="M740.8,464.5h71c1.7,0,3,1.3,3,3v115c0,1.7-1.3,3-3,3h-71c-1.7,0-3-1.3-3-3v-115 C737.8,465.8,739.1,464.5,740.8,464.5z"/>
  <path id="Indiana" d="M734.8,295.5h48c1.7,0,3,1.3,3,3v88c0,1.7-1.3,3-3,3h-48c-1.7,0-3-1.3-3-3v-88 C731.8,296.8,733.1,295.5,734.8,295.5z"/>
  <path id="Wisconsin" d="M640.8,179.5h88c1.7,0,3,1.3,3,3v90c0,1.7-1.3,3-3,3h-88c-1.7,0-3-1.3-3-3v-90 C637.8,180.8,639.1,179.5,640.8,179.5z"/>
  <path id="Louisiana" d="M610.8,535.5h94c1.7,0,3,1.3,3,3v88c0,1.7-1.3,3-3,3h-94c-1.7,0-3-1.3-3-3v-88 C607.8,536.8,609.1,535.5,610.8,535.5z"/>
  <path id="Arkansas" d="M604.8,447.5h100c1.7,0,3,1.3,3,3v82c0,1.7-1.3,3-3,3h-100c-1.7,0-3-1.3-3-3v-82 C601.8,448.8,603.1,447.5,604.8,447.5z"/>
  <path id="Mississippi" d="M680.8,464.5h54c1.7,0,3,1.3,3,3v115c0,1.7-1.3,3-3,3h-54c-1.7,0-3-1.3-3-3v-115 C677.8,465.8,679.1,464.5,680.8,464.5z"/>
  <path id="Iowa" d="M566.8,265.5h102c1.7,0,3,1.3,3,3v70c0,1.7-1.3,3-3,3h-102c-1.7,0-3-1.3-3-3v-70 C563.8,266.8,565.1,265.5,566.8,265.5z"/>
  <path id="Minnesota" d="M556.8,125.5h102c1.7,0,3,1.3,3,3v134c0,1.7-1.3,3-3,3h-102c-1.7,0-3-1.3-3-3v-134 C553.8,126.8,555.1,125.5,556.8,125.5z"/>
  <path id="Kansas" d="M452.8,353.5h122c1.7,0,3,1.3,3,3v69c0,1.7-1.3,3-3,3h-122c-1.7,0-3-1.3-3-3v-69 C449.8,354.8,451.1,353.5,452.8,353.5z"/>
  <path id="North_Dakota" d="M418.8,125.5h132c1.7,0,3,1.3,3,3v73c0,1.7-1.3,3-3,3h-132c-1.7,0-3-1.3-3-3v-73 C415.8,126.8,417.1,125.5,418.8,125.5z"/>
  <path id="Colorado" d="M306.8,318.5h140c1.7,0,3,1.3,3,3v104c0,1.7-1.3,3-3,3h-140c-1.7,0-3-1.3-3-3v-104 C303.8,319.8,305.1,318.5,306.8,318.5z"/>
  <path id="Wyoming" d="M287.8,219.5h125c1.7,0,3,1.3,3,3v93c0,1.7-1.3,3-3,3h-125c-1.7,0-3-1.3-3-3v-93 C284.8,220.8,286.1,219.5,287.8,219.5z"/>
  <path id="Montana" d="M255.8,125.5h157c1.7,0,3,1.3,3,3v88c0,1.7-1.3,3-3,3h-157c-1.7,0-3-1.3-3-3v-88 C252.8,126.8,254.1,125.5,255.8,125.5z"/>
  <path id="Arizona" d="M227.8,428.5h73c1.7,0,3,1.3,3,3v131c0,1.7-1.3,3-3,3h-73c-1.7,0-3-1.3-3-3v-131 C224.8,429.8,226.1,428.5,227.8,428.5z"/>
  <path id="Oregon" d="M69.8,190.5h119c1.7,0,3,1.3,3,3v82c0,1.7-1.3,3-3,3h-119c-1.7,0-3-1.3-3-3v-82 C66.8,191.8,68.1,190.5,69.8,190.5z"/>
  <path id="Washington" d="M55.8,125.5h133c1.7,0,3,1.3,3,3v59c0,1.7-1.3,3-3,3h-133c-1.7,0-3-1.3-3-3v-59 C52.8,126.8,54.1,125.5,55.8,125.5z"/>
  <path id="Texas" d="M607.8,512.5v116c0,0.7-0.2,1.3-0.6,1.8 l-66.4,85.6c-1.1,1.4-3.1,1.6-4.4,0.4L371.8,566.4c-0.6-0.6-1-1.4-1-2.2v-51.7c0-1.7,1.3-3,3-3h231 C606.5,509.5,607.8,510.8,607.8,512.5z"/>
  <path id="New_Mexico" d="M306.8,428.5h113c1.7,0,3,1.3,3,3v131c0,1.7-1.3,3-3,3h-113c-1.7,0-3-1.3-3-3v-131 C303.8,429.8,305.1,428.5,306.8,428.5z"/>
  <path id="Michigan" d="M820.5,161v131.5c0,1.7-1.3,3-3,3h-55.7 c-1.7,0-3-1.3-3-3v-110c0-1.7-1.3-3-3-3H699c-1.7,0-3-1.3-3-3V161c0-1.7,1.3-3,3-3h118.5C819.2,158,820.5,159.3,820.5,161z"/>
  <path id="Florida" d="M896.8,572.5v131.3c0,1.7-1.3,3-3,3h-35 c-1.7,0-3-1.3-3-3V600.6c0-1.7-1.3-3-3-3h-73.5c-1.7,0-3-1.3-3-3v-22.1c0-1.7,1.3-3,3-3h114.5C895.5,569.5,896.8,570.8,896.8,572.5 z"/>
  <path id="Alaska" d="M269.8,792.5h-45.3c-1.7,0-3-1.3-3-3v-14.2 c0-1.7-1.3-3-3-3H112.3c-1.7,0-3-1.3-3-3v-94.4c0-1.7,1.3-3,3-3h107.1c1.2,0,2.3,0.7,2.7,1.8l50.4,114.6 C273.4,790.3,272,792.5,269.8,792.5z"/>
  <path id="Hawaii" d="M362.7,707.2h-19c-1.7,0-3-1.3-3-3v-9.8 c0-2.4,2.7-3.8,4.7-2.5l105.4,73.5c2.4,1.7,1.2,5.5-1.7,5.5H419c-1.6,0-2.9-1.2-3-2.8l-2.2-40.9c-0.1-1.6-1.4-2.8-3-2.8h-42.2 c-1.7,0-3-1.3-3-3v-11.1C365.7,708.5,364.4,707.2,362.7,707.2z"/>
  <path id="Puerto_Rico" d="M1020.2,664.3l-6.4,10.6 c-0.5,0.9-1.5,1.5-2.6,1.5h-39.3c-1.7,0-3-1.3-3-3v-10.6c0-1.7,1.3-3,3-3h45.7C1019.9,659.8,1021.4,662.3,1020.2,664.3z"/>
  <path id="Guam" d="M977.2,733.9h-5.3c-1.7,0-3-1.3-3-3v-12.6 c0-0.9,0.4-1.7,1.1-2.3l12.2-10.2c2.3-1.9,5.7,0.3,4.8,3.2l-6.9,22.8C979.7,733,978.5,733.9,977.2,733.9z"/>
  <path id="Northern_Mariana_Islands" d="M1033.6,714.9l-10.7,1.3 c-1.8,0.2-3,2-2.5,3.8l0.1,0.4c0.8,2.8,4.7,3,5.7,0.2l4-11.1c1-2.9,5.2-2.6,5.8,0.4l0.3,1.4C1036.5,713,1035.3,714.7,1033.6,714.9z"/>
  <path id="American_Samoa" d="M1073,719.6l-5.4,2.9 c-1,0.6-2.3,0.5-3.3-0.3l-2-1.5c-2-1.6-1.3-4.8,1.3-5.3l7.4-1.4C1074.4,713.3,1076,717.9,1073,719.6z"/>
  <path id="Nevada" d="M224.8,281.5v169.8c0,2.4-2.7,3.9-4.7,2.4 l-89.5-63.4c-0.8-0.6-1.3-1.5-1.3-2.4V281.5c0-1.7,1.3-3,3-3h89.5C223.5,278.5,224.8,279.8,224.8,281.5z"/>
  <path id="US_Virgin_Islands" d="M1068.5,659.8h15.1 c2.5,0,3.9,2.9,2.3,4.9l-12.7,15.8c-1.6,2-0.2,4.9,2.3,4.9h9.2c2.9,0,4.1-3.7,1.8-5.4l-19.8-14.8 C1064.4,663.5,1065.6,659.8,1068.5,659.8z"/>
</g>
<g id="地名">
  <text transform="matrix(1 0 0 1 589.4671 206.0187)" class="st12">MN</text>
  <text transform="matrix(1 0 0 1 605.1514 312.5305)" class="st12">IA</text>
  <text transform="matrix(1 0 0 1 618.0379 405.5307)" class="st12">MO</text>
  <text transform="matrix(1 0 0 1 629.2762 500.5307)" class="st12">AR</text>
  <text transform="matrix(1 0 0 1 630.659 590.5308)" class="st12">LA</text>
  <text transform="matrix(1 0 0 1 689.5378 533.5308)" class="st12">MS</text>
  <text transform="matrix(1 0 0 1 760.6589 533.5308)" class="st12">AL</text>
  <text transform="matrix(1 0 0 1 837.4031 526.5306)" class="st12">GA</text>
  <text transform="matrix(1 0 0 1 908.6511 505.5307)" class="st12">SC</text>
  <text transform="matrix(1 0 0 1 896.5378 453.5307)" class="st12">NC</text>
  <text transform="matrix(1 0 0 1 917.6511 405.5307)" class="st12">VA</text>
  <text transform="matrix(1 0 0 1 764.9208 453.5307)" class="st12">TN</text>
  <text transform="matrix(1 0 0 1 760.155 416.5307)" class="st12">KY</text>
  <text transform="matrix(1 0 0 1 745.6649 351.5306)" class="st12">IN</text>
  <text transform="matrix(1 0 0 1 690.5339 351.5306)" class="st12">IL</text>
  <text transform="matrix(1 0 0 1 799.9169 352.5306)" class="st12">OH</text>
  <text transform="matrix(1 0 0 1 854.4647 372.4388)" class="st13">WV</text>
  <text transform="matrix(1 0 0 1 909.0183 355.4388)" class="st13">MD</text>
  <text transform="matrix(1 0 0 1 898.9031 312.5306)" class="st12">PA</text>
  <text transform="matrix(1 0 0 1 680.5261 237.5307)" class="st12">WI</text>
  <text transform="matrix(1 0 0 1 775.7859 237.5307)" class="st12">MI</text>
  <text transform="matrix(1 0 0 1 933.9208 228.5307)" class="st12">NY</text>
  <text transform="matrix(1 0 0 1 1049.538 170.5307)" class="st12">ME</text>
  <text transform="matrix(1 0 0 1 1009.9109 250.5307)" class="st12">MA</text>
  <text transform="matrix(1 0 0 1 862.0419 646.5307)" class="st12">FL</text>
  <text transform="matrix(1 0 0 1 498.79 594.5308)" class="st12">TX</text>
  <text transform="matrix(1 0 0 1 495.1512 477.5307)" class="st12">OK</text>
  <text transform="matrix(1 0 0 1 496.6512 399.5307)" class="st12">KS</text>
  <text transform="matrix(1 0 0 1 481.417 324.5306)" class="st12">NE</text>
  <text transform="matrix(1 0 0 1 467.6512 250.5307)" class="st12">SD</text>
  <text transform="matrix(1 0 0 1 466.5379 175.5307)" class="st12">ND</text>
  <text transform="matrix(1 0 0 1 317.0418 181.5307)" class="st12">MT</text>
  <text transform="matrix(1 0 0 1 331.7821 277.5306)" class="st12">WY</text>
  <text transform="matrix(1 0 0 1 358.1512 382.5306)" class="st12">CO</text>
  <text transform="matrix(1 0 0 1 344.4248 505.5307)" class="st12">NM</text>
  <text transform="matrix(1 0 0 1 248.1551 505.5307)" class="st12">AZ</text>
  <text transform="matrix(1 0 0 1 247.9207 366.5306)" class="st12">UT</text>
  <text transform="matrix(1 0 0 1 225.8992 253.5307)" class="st12">ID</text>
  <text transform="matrix(1 0 0 1 160.1649 350.5306)" class="st12">NV</text>
  <text transform="matrix(1 0 0 1 131.0243 461.5307)" class="st12">CA</text>
  <text transform="matrix(1 0 0 1 111.4032 243.5307)" class="st12">OR</text>
  <text transform="matrix(1 0 0 1 99.6513 166.5307)" class="st12">WA</text>
  <text transform="matrix(1 0 0 1 162.5993 733.9421)" class="st12">AK</text>
  <text transform="matrix(1 0 0 1 356.5481 753.2007)" class="st12">HI</text>
  <text transform="matrix(1 0 0 1 966.5399 313.3466)" class="st11">NJ</text>
  <text transform="matrix(1 0 0 1 967.3579 339.8257)" class="st14">DE</text>
  <text transform="matrix(1 0 0 1 948.9185 368.0621)" class="st14">DC</text>
  <text transform="matrix(1 0 0 1 1000.1531 269.6122)" class="st14">CT</text>
  <text transform="matrix(1 0 0 1 1028.1512 269.6122)" class="st14">RI</text>
  <text transform="matrix(1 0 0 1 998.4667 201.6122)" class="st14">VT</text>
  <text transform="matrix(1 0 0 1 1022.2274 201.6122)" class="st14">NH</text>
  <text transform="matrix(1 0 0 1 1061.3748 761.1207)" class="st11">AS</text>
  <text transform="matrix(1 0 0 1 1015.3513 761.1207)" class="st11">MP</text>
  <text transform="matrix(1 0 0 1 963.8845 761.1207)" class="st11">GU</text>
  <text transform="matrix(1 0 0 1 1064.8416 636.1207)" class="st11">VI</text>
  <text transform="matrix(1 0 0 1 983.3748 636.1207)" class="st11">PR</text>
</g>
<g id="等级">
  <rect x="620" y="716" width="150" height="30" fill="#FF7E7E"/>
  <rect x="620" y="746" width="150" height="30" fill="#FFB57E"/>
  <rect x="620" y="776" width="150" height="30" fill="#FFE57E"/>
  <rect x="620" y="806" width="150" height="30" fill="#A8FFBE"/>
  <rect x="620" y="836" width="150" height="30" fill="#88AEFF"/>
  <rect x="620" y="866" width="150" height="30" fill="#FFFFFF"/>
  <rect class="level-border" x="620" y="716" width="150" height="180"/>
  <text x="634" y="738">Lived 5</text>
  <text x="634" y="768">Stayed 4</text>
  <text x="634" y="798">Visited 3</text>
  <text x="634" y="828">Stopped 2</text>
  <text x="634" y="858">Passed 1</text>
  <text x="634" y="888">Never</text>
</g>
</svg>